name kv06_filtered_grf.mot
datacolumns 37
datarows 5
range 1.354500 1.356500
endheader
time	1_ground_force_vx	1_ground_force_vy	1_ground_force_vz	1_ground_force_px	1_ground_force_py	1_ground_force_pz	1_ground_torque_x	1_ground_torque_y	1_ground_torque_z	2_ground_force_vx	2_ground_force_vy	2_ground_force_vz	2_ground_force_px	2_ground_force_py	2_ground_force_pz	2_ground_torque_x	2_ground_torque_y	2_ground_torque_z	3_ground_force_vx	3_ground_force_vy	3_ground_force_vz	3_ground_force_px	3_ground_force_py	3_ground_force_pz	3_ground_torque_x	3_ground_torque_y	3_ground_torque_z	4_ground_force_vx	4_ground_force_vy	4_ground_force_vz	4_ground_force_px	4_ground_force_py	4_ground_force_pz	4_ground_torque_x	4_ground_torque_y	4_ground_torque_z
            1.354500	          -64.788043	          750.792233	          113.830691	            0.167383	            0.000000	            0.240475	           -1.322294	           15.323321	            2.323232	           53.280665	          676.388877	           55.514247	           -0.185374	            0.000000	            0.229703	            1.173224	           14.893878	            1.222407	            0.385011	           -0.163111	           -0.612037	            0.386809	            0.970457	            1.074542	            0.004127	            0.030405	            0.008185	            0.063721	            0.587224	            0.274748	           -0.368921	            0.969527	            1.108023	            0.000149	            0.009070	           -0.010142
            1.355000	          -64.450513	          750.732790	          113.339966	            0.167361	            0.000000	            0.240415	           -1.316730	           15.337544	            2.315547	           52.978471	          674.278825	           55.032383	           -0.185343	            0.000000	            0.229650	            1.162270	           14.792692	            1.207330	            0.377054	           -0.179129	           -0.607387	            0.386811	            0.970462	            1.074543	            0.004076	            0.030455	            0.008791	            0.050992	            0.588835	            0.286037	           -0.368919	            0.969528	            1.108025	            0.000118	            0.009116	           -0.010106
            1.355500	          -64.117797	          750.660155	          112.838900	            0.167340	            0.000000	            0.240357	           -1.311208	           15.350987	            2.307554	           52.678159	          672.169602	           54.554623	           -0.185314	            0.000000	            0.229598	            1.151433	           14.692205	            1.192449	            0.370352	           -0.194972	           -0.603050	            0.386813	            0.970466	            1.074544	            0.004014	            0.030484	            0.009379	            0.038179	            0.590080	            0.296930	           -0.368916	            0.969530	            1.108028	            0.000084	            0.009155	           -0.010087
            1.356000	          -63.790392	          750.572636	          112.328195	            0.167320	            0.000000	            0.240301	           -1.305735	           15.363577	            2.299262	           52.379926	          670.062250	           54.080929	           -0.185284	            0.000000	            0.229546	            1.140716	           14.592442	            1.177760	            0.364891	           -0.210610	           -0.599053	            0.386815	            0.970469	            1.074546	            0.003940	            0.030492	            0.009948	            0.025288	            0.590946	            0.307421	           -0.368913	            0.969531	            1.108031	            0.000049	            0.009186	           -0.010086
            1.356500	          -63.468778	          750.468570	          111.808567	            0.167302	            0.000000	            0.240247	           -1.300318	           15.375239	            2.290680	           52.083964	          667.957805	           53.611252	           -0.185256	            0.000000	            0.229494	            1.130124	           14.493426	            1.163263	            0.360649	           -0.226018	           -0.595427	            0.386817	            0.970473	            1.074547	            0.003854	            0.030481	            0.010497	            0.012327	            0.591420	            0.317502	           -0.368911	            0.969533	            1.108033	            0.000012	            0.009210	           -0.010104
